<svg width="265" height="139" viewBox="0 0 265 139" fill="none" xmlns="http://www.w3.org/2000/svg">
<path d="M116.594 67V40.6382H135.565V46.6852H123.589V50.7561H133.431V56.4473H123.589V60.953H136.395V67H116.594Z" fill="white"/>
<path d="M93.7529 67V40.6382H104.661C107.481 40.6382 109.747 41.3759 111.459 42.8515C113.172 44.3006 114.028 46.4481 114.028 49.2937C114.028 51.0064 113.646 52.5082 112.882 53.7993C112.118 55.0904 111.103 56.118 109.839 56.8821L115.491 67H107.981L103.515 58.0283H100.59V67H93.7529ZM100.59 52.5346H103.989C104.912 52.5346 105.662 52.2579 106.242 51.7046C106.822 51.1249 107.112 50.3608 107.112 49.4123C107.112 48.411 106.835 47.6206 106.282 47.0409C105.728 46.4612 104.951 46.1714 103.95 46.1714H100.59V52.5346Z" fill="white"/>
<path d="M72.3008 67V40.6382H91.2718V46.6852H79.2963V50.7561H89.1375V56.4473H79.2963V60.953H92.1018V67H72.3008Z" fill="white"/>
<path d="M45.8311 67V40.6382H52.8266V50.2818H62.5492V40.6382H69.5448V67H62.5492V56.6845H52.8266V67H45.8311Z" fill="white"/>
<path d="M29.5495 67V46.7642H21.4473V40.6382H44.6472V46.7642H36.6241V67H29.5495Z" fill="white"/>
<path d="M116.311 31L114.691 29.1029C113.242 30.1304 111.95 30.8023 110.817 31.1185C109.684 31.4611 108.499 31.6323 107.26 31.6323C105.679 31.6323 104.217 31.3293 102.873 30.7233C101.556 30.0909 100.489 29.1951 99.672 28.0357C98.8816 26.8764 98.4863 25.4536 98.4863 23.7673C98.4863 22.1336 98.9079 20.6186 99.7511 19.2221C100.621 17.7993 101.859 16.6268 103.466 15.7046C102.887 14.7824 102.518 13.9656 102.36 13.2542C102.201 12.5164 102.122 11.8577 102.122 11.278C102.122 9.90789 102.491 8.66951 103.229 7.56287C103.967 6.45622 104.981 5.57355 106.272 4.91483C107.563 4.25612 109.052 3.92676 110.738 3.92676C112.372 3.92676 113.887 4.33516 115.284 5.15197C116.706 5.94243 117.787 7.22033 118.524 8.98569L113.703 11.7918C113.439 11.1331 113.083 10.593 112.636 10.1714C112.214 9.72345 111.661 9.49949 110.976 9.49949C110.343 9.49949 109.803 9.6971 109.355 10.0923C108.934 10.4612 108.723 10.9618 108.723 11.5942C108.723 12.0158 108.855 12.4374 109.118 12.8589C109.408 13.2805 109.684 13.6626 109.948 14.0051L115.56 20.5659C116.087 20.0389 116.641 19.4461 117.22 18.7874C117.826 18.1287 118.472 17.4172 119.157 16.6531L123.544 20.6449C122.78 21.4881 122.042 22.2786 121.331 23.0163C120.646 23.7277 120 24.3865 119.394 24.9925L124.532 31H116.311ZM111.015 24.7553L106.905 19.894C106.246 20.3419 105.759 20.8426 105.442 21.3959C105.126 21.9492 104.968 22.5289 104.968 23.1349C104.968 23.978 105.271 24.6368 105.877 25.111C106.509 25.559 107.221 25.7829 108.011 25.7829C108.512 25.7829 108.986 25.7171 109.434 25.5853C109.908 25.4272 110.435 25.1506 111.015 24.7553Z" fill="#A1CE5E"/>
<path d="M73.1348 31V4.63818H92.1058V10.6852H80.1303V14.756H89.9715V20.4473H80.1303V24.953H92.9357V31H73.1348Z" fill="white"/>
<path d="M50.293 31V4.63818H61.2013C64.0206 4.63818 66.2866 5.37594 67.9992 6.85147C69.7119 8.30064 70.5682 10.4481 70.5682 13.2937C70.5682 15.0064 70.1862 16.5082 69.4221 17.7993C68.6579 19.0904 67.6435 20.118 66.3788 20.8821L72.0306 31H64.5212L60.0551 22.0283H57.1304V31H50.293ZM57.1304 16.5346H60.5294C61.4516 16.5346 62.2025 16.2579 62.7822 15.7046C63.3619 15.1249 63.6517 14.3608 63.6517 13.4123C63.6517 12.411 63.375 11.6206 62.8217 11.0409C62.2684 10.4612 61.4911 10.1714 60.4899 10.1714H57.1304V16.5346Z" fill="white"/>
<path d="M28.8408 31V4.63818H47.8118V10.6852H35.8364V14.756H45.6776V20.4473H35.8364V24.953H48.6418V31H28.8408Z" fill="white"/>
<path d="M2.37109 31V4.63818H9.36665V14.2818H19.0893V4.63818H26.0848V31H19.0893V20.6845H9.36665V31H2.37109Z" fill="white"/>
<path d="M52.2666 92.2159V74.3435H59.6621C61.5735 74.3435 63.1097 74.8437 64.2708 75.844C65.432 76.8265 66.0125 78.2824 66.0125 80.2117C66.0125 81.3728 65.7535 82.391 65.2355 83.2663C64.7174 84.1416 64.0297 84.8383 63.1722 85.3563L67.004 92.2159H61.9129L58.885 86.1334H56.9022V92.2159H52.2666ZM56.9022 82.4089H59.2066C59.8318 82.4089 60.3409 82.2213 60.7339 81.8462C61.1269 81.4532 61.3234 80.9351 61.3234 80.292C61.3234 79.6132 61.1358 79.0773 60.7607 78.6843C60.3855 78.2913 59.8586 78.0948 59.1798 78.0948H56.9022V82.4089Z" fill="white"/>
<path d="M40.4571 92.6445C39.1174 92.6445 37.8758 92.4123 36.7326 91.9478C35.6072 91.4834 34.6247 90.8314 33.7851 89.9918C32.9634 89.1343 32.3203 88.134 31.8559 86.9907C31.3914 85.8475 31.1592 84.597 31.1592 83.2394C31.1592 81.8818 31.3914 80.6313 31.8559 79.4881C32.3203 78.3448 32.9634 77.3534 33.7851 76.5138C34.6247 75.6742 35.6072 75.0222 36.7326 74.5578C37.8758 74.0933 39.1174 73.8611 40.4571 73.8611C41.7969 73.8611 43.0294 74.0933 44.1548 74.5578C45.2981 75.0222 46.2895 75.6742 47.1291 76.5138C47.9687 77.3534 48.6118 78.3448 49.0584 79.4881C49.5228 80.6313 49.755 81.8818 49.755 83.2394C49.755 84.597 49.5228 85.8475 49.0584 86.9907C48.6118 88.134 47.9687 89.1343 47.1291 89.9918C46.2895 90.8314 45.2981 91.4834 44.1548 91.9478C43.0294 92.4123 41.7969 92.6445 40.4571 92.6445ZM40.4571 88.1965C41.4039 88.1965 42.1988 87.9732 42.8419 87.5266C43.5028 87.08 44.003 86.4816 44.3424 85.7314C44.6818 84.9811 44.8515 84.1504 44.8515 83.2394C44.8515 82.3284 44.6818 81.4977 44.3424 80.7474C44.003 79.9972 43.5028 79.3988 42.8419 78.9522C42.1988 78.5056 41.4039 78.2823 40.4571 78.2823C39.5282 78.2823 38.7333 78.5056 38.0723 78.9522C37.4293 79.3988 36.9291 79.9972 36.5718 80.7474C36.2324 81.4977 36.0627 82.3284 36.0627 83.2394C36.0627 84.1504 36.2324 84.9811 36.5718 85.7314C36.9291 86.4816 37.4293 87.08 38.0723 87.5266C38.7333 87.9732 39.5282 88.1965 40.4571 88.1965Z" fill="white"/>
<path d="M17.9346 92.2159V74.3435H30.3943V78.4968H22.6773V81.9533H28.6526V85.8654H22.6773V92.2159H17.9346Z" fill="white"/>
<path d="M129.15 74.9436L107.588 115.397V134.394H91.9908V115.821L70.002 74.9436H85.5987L99.7466 100.471L113.554 74.9436H129.15Z" fill="white"/>
<path d="M210.869 109.945C210.869 113.683 211.979 116.684 214.2 118.95C216.421 121.215 219.239 122.348 222.655 122.348C226.015 122.348 228.719 121.244 230.769 119.035C232.876 116.769 233.929 113.739 233.929 109.945V74.9436H249.559V109.945C249.559 115.099 248.449 119.629 246.228 123.537C244.065 127.389 240.933 130.362 236.833 132.458C232.791 134.553 228.036 135.601 222.57 135.601C217.104 135.601 212.293 134.553 208.136 132.458C204.036 130.362 200.848 127.389 198.57 123.537C196.35 119.629 195.239 115.099 195.239 109.945V74.9436H210.869V109.945Z" fill="white"/>
<g clip-path="url(#clip0_6005_1236)">
<path d="M175.21 78.0849L173.94 79.1302L166.265 85.5262C165.463 85.1443 164.638 84.8245 163.802 84.5524C163.583 84.4809 163.344 84.4045 163.11 84.3329C162.838 84.247 162.557 84.1706 162.27 84.099C159.721 83.4451 157.02 83.2589 154.252 83.6408C152.834 83.8365 151.469 84.1945 150.175 84.6527C150.128 84.667 150.075 84.6909 150.027 84.7004C149.45 84.9104 148.882 85.1443 148.328 85.4021C148.257 85.4402 148.18 85.4641 148.109 85.5023C147.531 85.7839 146.963 86.0798 146.409 86.3996C146.395 86.3996 146.371 86.4235 146.362 86.4235C145.846 86.7337 145.35 87.0774 144.858 87.4211C144.576 87.6311 144.29 87.8506 144.018 88.075C143.856 88.2086 143.684 88.3327 143.526 88.4807C143.183 88.7766 142.834 89.0964 142.505 89.4162C142.467 89.4544 142.433 89.4878 142.395 89.526C137.837 94.0461 135.374 100.566 136.333 107.415C136.457 108.303 136.653 109.153 136.878 109.993L128.033 117.363C122.978 106.475 124.234 93.2394 132.391 83.5215C143.049 70.8203 161.655 68.6724 175.205 78.0897L175.21 78.0849Z" fill="#A1CE5E"/>
<path d="M180.566 76.4097L141.523 132.04C139.847 131.08 138.234 129.968 136.707 128.689C135.179 127.41 133.8 126.002 132.568 124.522L180.566 76.4097Z" fill="#258CC0"/>
<path d="M192.257 76.0688L189.672 68.584C192.111 65.6752 193.562 63.149 193.01 62.6557C192.458 62.1624 190.083 63.8635 187.408 66.5852L179.688 64.8161L178.562 65.4072L184.905 69.358C183.702 70.8082 182.761 72.1478 182.187 73.1897L178.849 72.7177L178.34 73.279L181.686 75.1545L183.907 78.2632L184.417 77.7019L183.587 74.4528C184.558 73.7851 185.808 72.6964 187.134 71.3568L191.773 77.2426L192.248 76.0688H192.261H192.257Z" fill="#F9FCFF"/>
<path d="M154.939 125.448L150.118 135.557C161.76 138.65 173.778 134.813 181.921 125.09C192.579 112.389 191.458 93.6976 179.84 81.9797L174.098 91.9841C176.131 94.7191 177.525 97.9838 178.041 101.592C179.654 113.114 171.635 123.758 160.127 125.372C158.366 125.62 156.638 125.62 154.953 125.434" fill="white"/>
</g>
<defs>
<clipPath id="clip0_6005_1236">
<rect width="69.7106" height="76.6515" fill="white" transform="translate(125.031 59.8547)"/>
</clipPath>
</defs>
</svg>
