<svg preserveAspectRatio="none" width="100%" height="100%" overflow="visible" style="display: block;" viewBox="0 0 111.301 4.24521" fill="none" xmlns="http://www.w3.org/2000/svg">
<path id="Name" d="M108.9 4.16659H110.054V1.00889H111.301V0.091717H107.654V1.00889H108.9V4.16659ZM106.25 1.5985C106.25 1.96537 106.014 2.18811 105.528 2.18811H104.886V0.995786H105.528C106.001 0.995786 106.25 1.21853 106.25 1.5985ZM106.263 4.16659H107.496L106.617 2.88255C107.129 2.6336 107.418 2.20122 107.418 1.5985C107.418 0.668228 106.722 0.091717 105.607 0.091717H103.744V4.16659H104.899V3.07908H105.528L106.263 4.16659ZM100.897 3.28872C100.281 3.28872 99.7955 2.83013 99.7955 2.1226C99.7955 1.41507 100.281 0.95648 100.897 0.95648C101.514 0.95648 101.999 1.41507 101.999 2.1226C101.999 2.83013 101.514 3.28872 100.897 3.28872ZM100.897 4.24521C102.196 4.24521 103.167 3.35423 103.167 2.1226C103.167 0.890967 102.209 0 100.897 0C99.5856 0 98.6279 0.890967 98.6279 2.1226C98.6279 3.35423 99.5856 4.24521 100.897 4.24521ZM96.4239 2.18811H95.7811V0.995786H96.4239C96.8962 0.995786 97.1454 1.21853 97.1454 1.5985C97.1454 1.97848 96.9093 2.18811 96.4239 2.18811ZM96.4895 0.091717H94.6266V4.16659H95.7811V3.10529H96.4895C97.6046 3.10529 98.2999 2.52878 98.2999 1.5985C98.2999 0.668228 97.6046 0.091717 96.4895 0.091717ZM92.8424 1.5985C92.8424 1.96537 92.6063 2.18811 92.1209 2.18811H91.4781V0.995786H92.1209C92.5932 0.995786 92.8424 1.21853 92.8424 1.5985ZM92.8556 4.16659H94.0887L93.2098 2.88255C93.7214 2.6336 94.01 2.20122 94.01 1.5985C94.01 0.668228 93.3147 0.091717 92.1996 0.091717H90.3367V4.16659H91.4912V3.07908H92.1209L92.8556 4.16659ZM88.382 4.16659H89.5365V0.091717H88.382V4.16659ZM85.1679 2.52878L85.6926 1.23163L86.2174 2.52878H85.1679ZM86.8865 4.16659H88.0803L86.2699 0.091717H85.1285L83.3312 4.16659H84.5119L84.8268 3.38044H86.5454L86.8602 4.16659H86.8865ZM78.7003 4.16659H81.7963V3.24941H79.8547V0.091717H78.7003V4.16659ZM75.4861 2.52878L76.0109 1.23163L76.5356 2.52878H75.4861ZM77.1916 4.16659H78.3854L76.575 0.091717H75.4337L73.6364 4.16659H74.8171L75.1319 3.38044H76.8505L77.1654 4.16659H77.1916ZM72.2195 0.091717V2.26673L70.4222 0.091717H69.4777V4.16659H70.6059V1.99158L72.4032 4.16659H73.3478V0.091717H72.2195ZM66.6309 3.28872C66.0143 3.28872 65.5289 2.83013 65.5289 2.1226C65.5289 1.41507 66.0143 0.95648 66.6309 0.95648C67.2475 0.95648 67.7329 1.41507 67.7329 2.1226C67.7329 2.83013 67.2475 3.28872 66.6309 3.28872ZM66.6309 4.24521C67.9297 4.24521 68.9005 3.35423 68.9005 2.1226C68.9005 0.890967 67.9428 0 66.6309 0C65.319 0 64.3613 0.890967 64.3613 2.1226C64.3613 3.35423 65.319 4.24521 66.6309 4.24521ZM62.6296 4.16659H63.7841V0.091717H62.6296V4.16659ZM59.8878 4.16659H61.0422V1.00889H62.2885V0.091717H58.6415V1.00889H59.8878V4.16659ZM56.2407 2.52878L56.7655 1.23163L57.2902 2.52878H56.2407ZM57.9462 4.16659H59.14L57.3296 0.091717H56.1882L54.3909 4.16659H55.5717L55.8865 3.38044H57.6051L57.9199 4.16659H57.9462ZM52.9741 0.091717V2.26673L51.1768 0.091717H50.2323V4.16659H51.3605V1.99158L53.1578 4.16659H54.1023V0.091717H52.9741ZM48.435 1.5985C48.435 1.96537 48.1988 2.18811 47.7134 2.18811H47.0706V0.995786H47.7134C48.1857 0.995786 48.435 1.21853 48.435 1.5985ZM48.4481 4.16659H49.6813L48.8023 2.88255C49.3139 2.6336 49.6026 2.20122 49.6026 1.5985C49.6026 0.668228 48.9073 0.091717 47.7921 0.091717H45.9293V4.16659H47.0837V3.07908H47.7134L48.4481 4.16659ZM43.1481 3.27562V2.52878H44.9585V1.66402H43.1481V0.982686H45.2077V0.091717H42.0067V4.16659H45.2733V3.27562H43.1481ZM39.2517 4.16659H40.4062V1.00889H41.6525V0.091717H38.0054V1.00889H39.2517V4.16659ZM36.5099 0.091717V2.26673L34.7126 0.091717H33.768V4.16659H34.8963V1.99158L36.6936 4.16659H37.6381V0.091717H36.5099ZM31.8133 4.16659H32.9678V0.091717H31.8133V4.16659ZM28.5861 4.16659H29.9242L28.1663 1.89986L29.8324 0.091717H28.5598L26.9856 1.78194V0.091717H25.8442V4.16659H26.9856V3.1446L27.4185 2.68601L28.5861 4.16659ZM22.394 4.16659H25.49V3.24941H23.5484V0.091717H22.394V4.16659ZM19.5472 3.28872C18.9306 3.28872 18.4452 2.83013 18.4452 2.1226C18.4452 1.41507 18.9306 0.95648 19.5472 0.95648C20.1637 0.95648 20.6491 1.41507 20.6491 2.1226C20.6491 2.83013 20.1637 3.28872 19.5472 3.28872ZM19.5472 4.24521C20.8459 4.24521 21.8167 3.35423 21.8167 2.1226C21.8167 0.890967 20.859 0 19.5472 0C18.2353 0 17.2776 0.890967 17.2776 2.1226C17.2776 3.35423 18.2353 4.24521 19.5472 4.24521ZM17.0546 0.982686L17.54 0.091717H13.8536V4.16659H15.008V2.76462H16.3199L16.8053 1.87366H15.008V0.982686H17.0546ZM12.0825 1.5985C12.0825 1.96537 11.8464 2.18811 11.361 2.18811H10.7181V0.995786H11.361C11.8332 0.995786 12.0825 1.21853 12.0825 1.5985ZM12.0825 4.16659H13.3157L12.4367 2.88255C12.9484 2.6336 13.237 2.20122 13.237 1.5985C13.237 0.668228 12.5417 0.091717 11.4266 0.091717H9.56368V4.16659H10.7181V3.07908H11.3478L12.0825 4.16659ZM6.72999 3.28872C6.11341 3.28872 5.62801 2.83013 5.62801 2.1226C5.62801 1.41507 6.11341 0.95648 6.72999 0.95648C7.34658 0.95648 7.83198 1.41507 7.83198 2.1226C7.83198 2.83013 7.34658 3.28872 6.72999 3.28872ZM6.72999 4.24521C8.02876 4.24521 8.99956 3.35423 8.99956 2.1226C8.99956 0.890967 8.04188 0 6.72999 0C5.4181 0 4.46043 0.890967 4.46043 2.1226C4.46043 3.35423 5.4181 4.24521 6.72999 4.24521ZM2.75497 0.091717V2.26673L0.95768 0.091717H0V4.16659H1.12823V1.99158L2.92551 4.16659H3.87007V0.091717H2.74185H2.75497Z" fill="var(--fill-0, white)"/>
</svg>
