<svg preserveAspectRatio="none" width="100%" height="100%" overflow="visible" style="display: block;" viewBox="0 0 210.003 42.9782" fill="none" xmlns="http://www.w3.org/2000/svg">
<g id="Log">
<g id="text">
<path id="Vector" d="M159.053 42.0299H160.868V35.662H163.376V34.1839H156.538V35.662H159.046V42.0299H159.053ZM153.575 37.0351C153.575 37.8897 153.015 38.4011 151.908 38.4011H150.43V35.669H151.908C153.015 35.669 153.575 36.1734 153.575 37.0351ZM155.558 42.0299L153.799 39.508C154.822 39.0737 155.41 38.205 155.41 37.0281C155.41 35.2697 154.1 34.1839 152.006 34.1839H148.608V42.0299H150.423V39.8442H152.09L153.603 42.0299H155.551H155.558ZM142.394 40.6218C140.993 40.6218 139.943 39.5991 139.943 38.1139C139.943 36.6288 140.993 35.606 142.394 35.606C143.796 35.606 144.846 36.6288 144.846 38.1139C144.846 39.5991 143.796 40.6218 142.394 40.6218ZM142.394 42.163C144.86 42.163 146.689 40.4467 146.689 38.1069C146.689 35.7671 144.86 34.0508 142.394 34.0508C139.929 34.0508 138.1 35.7741 138.1 38.1069C138.1 40.4397 139.915 42.163 142.394 42.163ZM133.182 38.3871H131.704V35.662H133.182C134.289 35.662 134.85 36.1664 134.85 37.0281C134.85 37.8897 134.289 38.3871 133.182 38.3871ZM133.287 34.1839H129.89V42.0299H131.704V39.8653H133.287C135.382 39.8653 136.692 38.7794 136.692 37.0281C136.692 35.2767 135.382 34.1839 133.287 34.1839ZM126.051 37.0351C126.051 37.8897 125.49 38.4011 124.384 38.4011H122.906V35.669H124.384C125.49 35.669 126.051 36.1734 126.051 37.0351ZM128.033 42.0299L126.275 39.508C127.298 39.0737 127.886 38.205 127.886 37.0281C127.886 35.2697 126.576 34.1839 124.482 34.1839H121.084V42.0299H122.898V39.8442H124.566L126.079 42.0299H128.026H128.033ZM116.874 42.0299H118.688V34.1839H116.874V42.0299ZM109.826 38.9686L111.073 35.9633L112.32 38.9686H109.833H109.826ZM113.581 42.0299H115.487L111.977 34.1839H110.184L106.688 42.0299H108.551L109.245 40.3486H112.888L113.581 42.0299Z" fill="var(--fill-0, #FAFCFD)"/>
<path id="Vector_2" d="M204.252 28.7336H210.003V27.2554H206.066V20.8876H204.252V28.7336ZM197.204 25.6722L198.451 22.6669L199.698 25.6722H197.212H197.204ZM200.959 28.7336H202.865L199.355 20.8876H197.562L194.066 28.7336H195.93L196.623 27.0523H200.266L200.959 28.7336ZM190.865 20.8876V25.6512L186.963 20.8876H185.463V28.7336H187.257V23.9699L191.166 28.7336H192.658V20.8876H190.865ZM179.25 27.3255C177.849 27.3255 176.798 26.3027 176.798 24.8176C176.798 23.3324 177.849 22.3097 179.25 22.3097C180.651 22.3097 181.702 23.3324 181.702 24.8176C181.702 26.3027 180.651 27.3255 179.25 27.3255ZM179.25 28.8667C181.716 28.8667 183.544 27.1504 183.544 24.8106C183.544 22.4708 181.716 20.7545 179.25 20.7545C176.784 20.7545 174.955 22.4778 174.955 24.8106C174.955 27.1434 176.77 28.8667 179.25 28.8667ZM171.215 28.7336H173.029V20.8876H171.215V28.7336ZM165.428 28.7336H167.243V22.3657H169.75V20.8876H162.913V22.3657H165.421V28.7336H165.428ZM157.568 25.6722L158.815 22.6669L160.062 25.6722H157.575H157.568ZM161.323 28.7336H163.228L159.719 20.8876H157.925L154.43 28.7336H156.293L156.987 27.0523H160.629L161.323 28.7336ZM151.235 20.8876V25.6512L147.333 20.8876H145.834V28.7336H147.627V23.9699L151.536 28.7336H153.029V20.8876H151.235ZM141.995 23.7388C141.995 24.5934 141.435 25.1048 140.328 25.1048H138.85V22.3727H140.328C141.435 22.3727 141.995 22.8771 141.995 23.7388ZM143.978 28.7336L142.219 26.2116C143.242 25.7773 143.831 24.9086 143.831 23.7317C143.831 21.9734 142.521 20.8876 140.426 20.8876H137.028V28.7336H138.843V26.5479H140.51L142.023 28.7336H143.971H143.978ZM130.695 27.2765V25.4621H134.338V24.047H130.695V22.3447H134.822V20.8876H128.895V28.7336H134.969V27.2765H130.695ZM123.102 28.7336H124.916V22.3657H127.424V20.8876H120.587V22.3657H123.095V28.7336H123.102ZM117.329 20.8876V25.6512L113.427 20.8876H111.928V28.7336H113.721V23.9699L117.63 28.7336H119.123V20.8876H117.329ZM107.718 28.7336H109.532V20.8876H107.718V28.7336Z" fill="var(--fill-0, #FAFCFD)"/>
<path id="Vector_3" d="M165.659 15.4379H167.775L164.335 11.0876L167.586 7.59189H165.568L162.094 11.2557V7.59189H160.286V15.4379H162.094V13.4554L163.144 12.3555L165.652 15.4379H165.659ZM153.057 15.4379H158.808V13.9598H154.871V7.59189H153.057V15.4379ZM146.836 14.0298C145.435 14.0298 144.384 13.007 144.384 11.5219C144.384 10.0368 145.435 9.01398 146.836 9.01398C148.237 9.01398 149.288 10.0368 149.288 11.5219C149.288 13.007 148.237 14.0298 146.836 14.0298ZM146.836 15.571C149.302 15.571 151.13 13.8547 151.13 11.5149C151.13 9.1751 149.302 7.45879 146.836 7.45879C144.37 7.45879 142.542 9.18211 142.542 11.5149C142.542 13.8477 144.356 15.571 146.836 15.571ZM141.379 9.049L142.079 7.59189H136.153V15.4379H137.967V12.5797H140.195V11.1226H137.967V9.049H141.379ZM132.314 10.4431C132.314 11.2977 131.753 11.8091 130.646 11.8091H129.168V9.07703H130.646C131.753 9.07703 132.314 9.58141 132.314 10.4431ZM134.296 15.4379L132.538 12.916C133.561 12.4816 134.149 11.613 134.149 10.4361C134.149 8.67772 132.839 7.59189 130.745 7.59189H127.347V15.4379H129.161V13.2522H130.829L132.342 15.4379H134.289H134.296ZM121.133 14.0298C119.732 14.0298 118.681 13.007 118.681 11.5219C118.681 10.0368 119.732 9.01398 121.133 9.01398C122.534 9.01398 123.585 10.0368 123.585 11.5219C123.585 13.007 122.534 14.0298 121.133 14.0298ZM121.133 15.571C123.599 15.571 125.427 13.8547 125.427 11.5149C125.427 9.1751 123.599 7.45879 121.133 7.45879C118.667 7.45879 116.839 9.18211 116.839 11.5149C116.839 13.8477 118.653 15.571 121.133 15.571ZM113.119 7.59189V12.3555L109.217 7.59189H107.718V15.4379H109.511V10.6743L113.42 15.4379H114.912V7.59189H113.119Z" fill="var(--fill-0, #FAFCFD)"/>
</g>
<path id="Vector_4" d="M77.0553 6.54792V42.8287H84.369V29.2103H95.7807L98.1695 22.9125H84.369V12.7967H101.504L103.893 6.54792H77.0553Z" fill="var(--fill-0, #FAFCFD)"/>
<path id="Vector_5" d="M48.2843 12.8458H55.6539C61.1742 12.8458 64.0954 15.1645 64.0954 19.5569C64.0954 23.9493 61.0971 26.3171 55.6539 26.3171H48.2843V12.8458ZM71.458 19.5569C71.458 11.5357 65.5175 6.54792 55.9622 6.54792H40.9707V42.8287H48.2843V32.4608H55.9622C56.3545 32.4608 56.7538 32.4608 57.1601 32.4258L64.4176 42.8287H72.3968L64.0814 30.9476C68.845 28.9301 71.4651 24.902 71.4651 19.5569" fill="var(--fill-0, #FAFCFD)"/>
<g id="O">
<path id="Vector_6" d="M31.5765 8.90171L29.5589 11.7809L28.5081 13.2661L26.6727 15.8931L9.37647 40.531C8.42374 39.9845 7.50603 39.3541 6.63737 38.6255C5.7687 37.8969 4.9841 37.0983 4.28356 36.2577" fill="var(--fill-0, #248DC1)"/>
<path id="Vector_7" d="M39.1002 8.61488L37.461 3.83722C39.0092 1.98079 39.9269 0.369557 39.5766 0.0543156C39.2263 -0.260926 37.7202 0.824907 36.0249 2.56224L31.1281 1.43437L30.4136 1.81266L34.4347 4.3346C33.6711 5.25931 33.0756 6.11396 32.7113 6.77947L30.5957 6.47824L30.2735 6.83552L32.3961 8.03343L33.8042 10.016L34.1264 9.65868L33.601 7.58509C34.2175 7.15776 35.0091 6.46423 35.8497 5.60958L38.792 9.36445L39.0932 8.61488H39.1002Z" fill="var(--fill-0, #FAFCFD)"/>
<path id="Vector_8" d="M17.0053 36.7835L13.8109 42.3597C20.4309 44.1181 27.7165 42.1075 32.3471 36.5803C38.4067 29.3578 37.7692 18.7306 31.1632 12.0685L27.8987 17.7569C29.0546 19.3121 29.8462 21.1685 30.1404 23.2211C31.0581 29.7711 26.4976 35.8237 19.9546 36.7414C18.9528 36.8815 17.9721 36.8815 17.0123 36.7765" fill="var(--fill-0, #FAFCFD)"/>
<path id="Vector_9" d="M28.5291 9.85476L27.8076 10.4502L23.4432 14.086C22.9879 13.8688 22.5185 13.6867 22.0422 13.5326C21.9161 13.4905 21.783 13.4485 21.6499 13.4065C21.4957 13.3574 21.3346 13.3154 21.1735 13.2734C19.7234 12.9021 18.1892 12.797 16.613 13.0142C15.8074 13.1263 15.0298 13.3294 14.2942 13.5886C14.2662 13.5956 14.2382 13.6096 14.2102 13.6166C13.8809 13.7357 13.5587 13.8688 13.2434 14.016C13.2014 14.037 13.1594 14.051 13.1173 14.072C12.7881 14.2331 12.4658 14.4012 12.1506 14.5834C12.1436 14.5834 12.1296 14.5974 12.1226 14.5974C11.8283 14.7725 11.5481 14.9687 11.2679 15.1648C11.1068 15.2839 10.9457 15.41 10.7915 15.5361C10.7005 15.6132 10.6024 15.6832 10.5113 15.7673C10.3152 15.9354 10.119 16.1176 9.92988 16.2997C9.90886 16.3207 9.88785 16.3417 9.86683 16.3628C7.27484 18.9337 5.87377 22.6396 6.42019 26.5346C6.49024 27.0389 6.60233 27.5223 6.72843 27.9987L1.69857 32.1879C-1.16663 25.9951 -0.452081 18.4714 4.18547 12.9441C10.2451 5.72159 20.8232 4.50266 28.5291 9.85476Z" fill="var(--fill-0, #A2CF5F)"/>
</g>
</g>
</svg>
