<svg width="392" height="130" viewBox="0 0 392 130" fill="none" xmlns="http://www.w3.org/2000/svg">
<path d="M132.288 73.735V47.0308H143.338C146.194 47.0308 148.489 47.7781 150.224 49.2728C151.959 50.7408 152.827 52.9161 152.827 55.7987C152.827 57.5336 152.44 59.055 151.666 60.3629C150.892 61.6707 149.864 62.7117 148.583 63.4857L154.308 73.735H146.701L142.177 64.6468H139.214V73.735H132.288ZM139.214 59.0817H142.658C143.592 59.0817 144.352 58.8015 144.94 58.2409C145.527 57.6537 145.82 56.8797 145.82 55.9188C145.82 54.9046 145.54 54.1039 144.98 53.5167C144.419 52.9295 143.632 52.6359 142.617 52.6359H139.214V59.0817Z" fill="white"/>
<path d="M114.644 74.3756C112.642 74.3756 110.787 74.0286 109.079 73.3346C107.397 72.6406 105.929 71.6664 104.675 70.412C103.447 69.1308 102.486 67.6361 101.792 65.9279C101.098 64.2197 100.751 62.3513 100.751 60.3228C100.751 58.2943 101.098 56.4259 101.792 54.7177C102.486 53.0095 103.447 51.5281 104.675 50.2737C105.929 49.0192 107.397 48.045 109.079 47.351C110.787 46.657 112.642 46.3101 114.644 46.3101C116.645 46.3101 118.487 46.657 120.169 47.351C121.877 48.045 123.358 49.0192 124.613 50.2737C125.867 51.5281 126.828 53.0095 127.495 54.7177C128.189 56.4259 128.536 58.2943 128.536 60.3228C128.536 62.3513 128.189 64.2197 127.495 65.9279C126.828 67.6361 125.867 69.1308 124.613 70.412C123.358 71.6664 121.877 72.6406 120.169 73.3346C118.487 74.0286 116.645 74.3756 114.644 74.3756ZM114.644 67.7295C116.058 67.7295 117.246 67.3959 118.207 66.7286C119.194 66.0613 119.942 65.1672 120.449 64.0462C120.956 62.9252 121.21 61.684 121.21 60.3228C121.21 58.9616 120.956 57.7204 120.449 56.5994C119.942 55.4784 119.194 54.5842 118.207 53.917C117.246 53.2497 116.058 52.9161 114.644 52.9161C113.256 52.9161 112.068 53.2497 111.08 53.917C110.119 54.5842 109.372 55.4784 108.838 56.5994C108.331 57.7204 108.078 58.9616 108.078 60.3228C108.078 61.684 108.331 62.9252 108.838 64.0462C109.372 65.1672 110.119 66.0613 111.08 66.7286C112.068 67.3959 113.256 67.7295 114.644 67.7295Z" fill="white"/>
<path d="M80.9912 73.735V47.0308H99.6081V53.2364H88.0776V58.4011H97.0058V64.2464H88.0776V73.735H80.9912Z" fill="white"/>
<path d="M233.859 47.7659L206.447 99.1941V123.345H186.619V99.7331L158.664 47.7659H178.492L196.478 80.2185L214.031 47.7659H233.859Z" fill="white"/>
<path d="M337.749 92.2628C337.749 97.0149 339.161 100.831 341.984 103.711C344.807 106.591 348.39 108.031 352.733 108.031C357.004 108.031 360.442 106.627 363.048 103.819C365.727 100.939 367.066 97.0869 367.066 92.2628V47.7659H386.936V92.2628C386.936 98.8149 385.524 104.575 382.701 109.543C379.951 114.439 375.969 118.219 370.757 120.883C365.618 123.547 359.574 124.879 352.625 124.879C345.675 124.879 339.559 123.547 334.274 120.883C329.063 118.219 325.009 114.439 322.114 109.543C319.29 104.575 317.879 98.8149 317.879 92.2628V47.7659H337.749V92.2628Z" fill="white"/>
<g clip-path="url(#clip0_6005_958)">
<path d="M292.415 51.7594L290.801 53.0883L281.043 61.2194C280.024 60.734 278.974 60.3274 277.912 59.9816C277.633 59.8905 277.33 59.7935 277.032 59.7024C276.687 59.5932 276.329 59.4961 275.964 59.4051C272.724 58.5738 269.29 58.3371 265.77 58.8226C263.968 59.0714 262.233 59.5265 260.588 60.109C260.527 60.1272 260.461 60.1575 260.4 60.1697C259.666 60.4367 258.944 60.734 258.24 61.0617C258.149 61.1102 258.052 61.1406 257.961 61.1891C257.226 61.5471 256.504 61.9233 255.8 62.3299C255.782 62.3299 255.752 62.3602 255.74 62.3602C255.084 62.7546 254.453 63.1915 253.828 63.6284C253.47 63.8954 253.106 64.1746 252.76 64.4598C252.554 64.6297 252.336 64.7874 252.135 64.9755C251.699 65.3518 251.256 65.7583 250.837 66.1649C250.788 66.2134 250.746 66.2559 250.697 66.3044C244.902 72.0508 241.771 80.3397 242.991 89.0473C243.149 90.176 243.397 91.2561 243.683 92.324L232.439 101.693C226.013 87.8519 227.609 71.0253 237.979 58.6709C251.529 42.5239 275.182 39.7933 292.409 51.7655L292.415 51.7594Z" fill="#A1CE5E"/>
<path d="M299.223 49.6296L249.587 120.352C247.457 119.133 245.406 117.719 243.464 116.092C241.522 114.466 239.769 112.676 238.203 110.795L299.223 49.6296Z" fill="#258CC0"/>
<path d="M314.086 49.1962L310.8 39.6807C313.901 35.9827 315.746 32.7712 315.044 32.1441C314.342 31.5169 311.322 33.6795 307.922 37.1397L298.107 34.8906L296.676 35.6421L304.739 40.6647C303.211 42.5083 302.014 44.2114 301.285 45.536L297.041 44.9358L296.394 45.6495L300.648 48.0338L303.472 51.9859L304.119 51.2723L303.064 47.1417C304.299 46.2929 305.887 44.9088 307.574 43.2058L313.471 50.6884L314.075 49.1962H314.092H314.086Z" fill="#F9FCFF"/>
<path d="M266.644 111.972L260.516 124.824C275.315 128.756 290.595 123.878 300.947 111.517C314.497 95.3702 313.071 71.6079 298.301 56.7109L291.001 69.4295C293.586 72.9064 295.358 77.057 296.013 81.6444C298.064 96.2925 287.87 109.824 273.24 111.875C271.001 112.191 268.805 112.191 266.663 111.954" fill="white"/>
</g>
<path d="M265.341 36V5.3396H287.405V12.3727H273.477V17.1073H284.923V23.7267H273.477V28.967H288.371V36H265.341Z" fill="white"/>
<path d="M238.315 36V5.3396H251.003C254.282 5.3396 256.917 6.19766 258.909 7.91379C260.901 9.59927 261.897 12.0969 261.897 15.4065C261.897 17.3985 261.453 19.1452 260.564 20.6468C259.675 22.1485 258.495 23.3436 257.024 24.2323L263.598 36H254.864L249.669 25.5654H246.268V36H238.315ZM246.268 19.1759H250.221C251.294 19.1759 252.167 18.8541 252.841 18.2106C253.515 17.5364 253.853 16.6477 253.853 15.5444C253.853 14.3799 253.531 13.4606 252.887 12.7864C252.244 12.1122 251.34 11.7751 250.175 11.7751H246.268V19.1759Z" fill="white"/>
<path d="M212.906 36V5.3396H234.971V12.3727H221.043V17.1073H232.488V23.7267H221.043V28.967H235.936V36H212.906Z" fill="white"/>
<path d="M181.66 36V5.3396H189.796V16.5557H201.104V5.3396H209.241V36H201.104V24.0025H189.796V36H181.66Z" fill="white"/>
<path d="M162.264 36V12.4646H152.841V5.3396H179.824V12.4646H170.492V36H162.264Z" fill="white"/>
<path d="M137.575 36.0001L135.691 33.7936C134.005 34.9888 132.503 35.7702 131.186 36.138C129.868 36.5364 128.489 36.7356 127.049 36.7356C125.21 36.7356 123.509 36.3831 121.946 35.6783C120.414 34.9428 119.173 33.9009 118.223 32.5525C117.303 31.2041 116.844 29.5493 116.844 27.588C116.844 25.688 117.334 23.9259 118.315 22.3017C119.326 20.6469 120.766 19.2832 122.636 18.2106C121.961 17.138 121.532 16.188 121.349 15.3606C121.165 14.5025 121.073 13.7364 121.073 13.0622C121.073 11.4687 121.502 10.0283 122.36 8.74123C123.218 7.45414 124.398 6.42753 125.899 5.6614C127.401 4.89527 129.132 4.51221 131.094 4.51221C132.994 4.51221 134.756 4.98721 136.38 5.93721C138.035 6.85656 139.291 8.34285 140.149 10.3961L134.541 13.6598C134.235 12.8936 133.821 12.2654 133.3 11.7751C132.81 11.2541 132.166 10.9937 131.37 10.9937C130.634 10.9937 130.006 11.2235 129.485 11.6832C128.995 12.1122 128.749 12.6945 128.749 13.4299C128.749 13.9203 128.903 14.4106 129.209 14.9009C129.546 15.3912 129.868 15.8356 130.174 16.234L136.702 23.8646C137.315 23.2517 137.958 22.5622 138.632 21.7961C139.337 21.0299 140.088 20.2025 140.885 19.3138L145.987 23.9565C145.099 24.9372 144.24 25.8565 143.413 26.7146C142.616 27.542 141.865 28.3081 141.161 29.013L147.136 36.0001H137.575ZM131.416 28.7372L126.635 23.0832C125.869 23.6041 125.302 24.1864 124.934 24.8299C124.566 25.4735 124.382 26.1477 124.382 26.8525C124.382 27.8331 124.735 28.5993 125.44 29.1509C126.175 29.6719 127.003 29.9323 127.922 29.9323C128.504 29.9323 129.056 29.8557 129.577 29.7025C130.128 29.5186 130.741 29.1969 131.416 28.7372Z" fill="#A1CE5E"/>
<path d="M86.4395 36V5.3396H108.504V12.3727H94.5757V17.1073H106.022V23.7267H94.5757V28.967H109.469V36H86.4395Z" fill="white"/>
<path d="M59.4131 36V5.3396H72.1002C75.3792 5.3396 78.0147 6.19766 80.0066 7.91379C81.9985 9.59927 82.9945 12.0969 82.9945 15.4065C82.9945 17.3985 82.5502 19.1452 81.6614 20.6468C80.7727 22.1485 79.5929 23.3436 78.1219 24.2323L84.6953 36H75.9615L70.7671 25.5654H67.3655V36H59.4131ZM67.3655 19.1759H71.3187C72.3913 19.1759 73.2647 18.8541 73.9389 18.2106C74.6131 17.5364 74.9502 16.6477 74.9502 15.5444C74.9502 14.3799 74.6284 13.4606 73.9848 12.7864C73.3413 12.1122 72.4373 11.7751 71.2728 11.7751H67.3655V19.1759Z" fill="white"/>
<path d="M34.0039 36V5.3396H56.0684V12.3727H42.1402V17.1073H53.5861V23.7267H42.1402V28.967H57.0337V36H34.0039Z" fill="white"/>
<path d="M2.75781 36V5.3396H10.8941V16.5557H22.2021V5.3396H30.3384V36H22.2021V24.0025H10.8941V36H2.75781Z" fill="white"/>
<defs>
<clipPath id="clip0_6005_958">
<rect width="88.623" height="97.447" fill="white" transform="translate(228.622 28.5833)"/>
</clipPath>
</defs>
</svg>
