<svg width="137" height="127" viewBox="0 0 137 127" fill="none" xmlns="http://www.w3.org/2000/svg">
<path d="M94.6631 52V31.5046H109.412V36.206H100.102V39.3709H107.753V43.7957H100.102V47.2986H110.058V52H94.6631Z" fill="white"/>
<path d="M76.9043 52V31.5046H85.3851C87.577 31.5046 89.3387 32.0782 90.6703 33.2254C92.0018 34.3521 92.6676 36.0216 92.6676 38.234C92.6676 39.5655 92.3705 40.7332 91.7765 41.7369C91.1824 42.7407 90.3937 43.5396 89.4104 44.1337L93.8045 52H87.9662L84.494 45.0248H82.2202V52H76.9043ZM82.2202 40.7537H84.8627C85.5797 40.7537 86.1636 40.5386 86.6142 40.1084C87.0649 39.6577 87.2902 39.0636 87.2902 38.3262C87.2902 37.5477 87.0751 36.9332 86.645 36.4825C86.2148 36.0318 85.6105 35.8065 84.832 35.8065H82.2202V40.7537Z" fill="white"/>
<path d="M60.2266 52V31.5046H74.9758V36.206H65.6653V39.3709H73.3165V43.7957H65.6653V47.2986H75.6211V52H60.2266Z" fill="white"/>
<path d="M39.6475 52V31.5046H45.0863V39.0022H52.6452V31.5046H58.084V52H52.6452V43.9801H45.0863V52H39.6475Z" fill="white"/>
<path d="M26.9886 52V36.2674H20.6895V31.5046H38.7266V36.2674H32.4889V52H26.9886Z" fill="white"/>
<path d="M90.4275 24.0001L89.1677 22.5252C88.041 23.3241 87.0372 23.8464 86.1564 24.0923C85.2755 24.3586 84.3537 24.4917 83.3909 24.4917C82.1618 24.4917 81.0248 24.2561 79.9801 23.785C78.9558 23.2934 78.1262 22.5969 77.4912 21.6955C76.8766 20.7942 76.5693 19.688 76.5693 18.3769C76.5693 17.1069 76.8971 15.929 77.5526 14.8433C78.2286 13.7371 79.1914 12.8255 80.441 12.1085C79.9903 11.3915 79.7036 10.7565 79.5806 10.2034C79.4577 9.6298 79.3963 9.11767 79.3963 8.667C79.3963 7.60178 79.6831 6.63898 80.2567 5.7786C80.8302 4.91823 81.6189 4.23198 82.6227 3.71985C83.6264 3.20772 84.7839 2.95166 86.0949 2.95166C87.365 2.95166 88.5429 3.26918 89.6286 3.90422C90.7348 4.51877 91.5747 5.5123 92.1482 6.8848L88.3995 9.06646C88.1946 8.55433 87.9181 8.13439 87.5698 7.80663C87.2421 7.45838 86.8119 7.28426 86.2793 7.28426C85.7876 7.28426 85.3677 7.43789 85.0194 7.74517C84.6917 8.03196 84.5278 8.42118 84.5278 8.91282C84.5278 9.24058 84.6302 9.56834 84.8351 9.8961C85.0604 10.2239 85.2755 10.5209 85.4803 10.7872L89.8437 15.888C90.2534 15.4783 90.6836 15.0174 91.1342 14.5052C91.6054 13.9931 92.1073 13.44 92.6399 12.846L96.0507 15.9494C95.4566 16.605 94.883 17.2195 94.3299 17.7931C93.7973 18.3462 93.2954 18.8583 92.8242 19.3295L96.8188 24.0001H90.4275ZM86.31 19.1451L83.1143 15.3656C82.6022 15.7139 82.2232 16.1031 81.9774 16.5333C81.7316 16.9635 81.6087 17.4141 81.6087 17.8853C81.6087 18.5408 81.8442 19.0529 82.3154 19.4217C82.807 19.7699 83.3601 19.944 83.9747 19.944C84.3639 19.944 84.7326 19.8928 85.0809 19.7904C85.4496 19.6675 85.8593 19.4524 86.31 19.1451Z" fill="#A1CE5E"/>
<path d="M56.8594 24V3.50464H71.6086V8.20597H62.2982V11.3709H69.9493V15.7957H62.2982V19.2986H72.2539V24H56.8594Z" fill="white"/>
<path d="M39.1006 24V3.50464H47.5814C49.7733 3.50464 51.535 4.07822 52.8666 5.22539C54.1981 6.35207 54.8639 8.0216 54.8639 10.234C54.8639 11.5655 54.5668 12.7332 53.9728 13.7369C53.3787 14.7407 52.59 15.5396 51.6067 16.1337L56.0008 24H50.1625L46.6903 17.0248H44.4165V24H39.1006ZM44.4165 12.7537H47.059C47.776 12.7537 48.3598 12.5386 48.8105 12.1084C49.2612 11.6577 49.4865 11.0636 49.4865 10.3262C49.4865 9.54774 49.2714 8.93319 48.8412 8.48252C48.4111 8.03184 47.8067 7.80651 47.0283 7.80651H44.4165V12.7537Z" fill="white"/>
<path d="M22.4229 24V3.50464H37.1721V8.20597H27.8616V11.3709H35.5128V15.7957H27.8616V19.2986H37.8174V24H22.4229Z" fill="white"/>
<path d="M1.84375 24V3.50464H7.28254V11.0022H14.8415V3.50464H20.2803V24H14.8415V15.9801H7.28254V24H1.84375Z" fill="white"/>
<path d="M43.2471 75.2054V58.8787H50.003C51.7491 58.8787 53.1525 59.3356 54.2132 60.2494C55.2739 61.147 55.8042 62.4769 55.8042 64.2393C55.8042 65.3 55.5676 66.2302 55.0944 67.0298C54.6212 67.8294 53.9929 68.4659 53.2096 68.9391L56.7099 75.2054H52.0591L49.2931 69.649H47.4818V75.2054H43.2471ZM47.4818 66.2465H49.5869C50.158 66.2465 50.6231 66.0752 50.9821 65.7325C51.3411 65.3735 51.5206 64.9002 51.5206 64.3128C51.5206 63.6927 51.3493 63.2031 51.0066 62.8441C50.6639 62.4851 50.1825 62.3056 49.5624 62.3056H47.4818V66.2465Z" fill="white"/>
<path d="M32.4597 75.5973C31.2358 75.5973 30.1016 75.3851 29.0572 74.9608C28.0292 74.5366 27.1316 73.9409 26.3647 73.174C25.614 72.3907 25.0265 71.4768 24.6022 70.4324C24.178 69.388 23.9658 68.2457 23.9658 67.0055C23.9658 65.7653 24.178 64.623 24.6022 63.5786C25.0265 62.5342 25.614 61.6285 26.3647 60.8615C27.1316 60.0946 28.0292 59.4989 29.0572 59.0747C30.1016 58.6504 31.2358 58.4382 32.4597 58.4382C33.6836 58.4382 34.8095 58.6504 35.8376 59.0747C36.882 59.4989 37.7877 60.0946 38.5547 60.8615C39.3216 61.6285 39.9091 62.5342 40.3171 63.5786C40.7414 64.623 40.9535 65.7653 40.9535 67.0055C40.9535 68.2457 40.7414 69.388 40.3171 70.4324C39.9091 71.4768 39.3216 72.3907 38.5547 73.174C37.7877 73.9409 36.882 74.5366 35.8376 74.9608C34.8095 75.3851 33.6836 75.5973 32.4597 75.5973ZM32.4597 71.5339C33.3246 71.5339 34.0507 71.3299 34.6382 70.922C35.242 70.514 35.6989 69.9673 36.009 69.282C36.319 68.5966 36.474 67.8378 36.474 67.0055C36.474 66.1733 36.319 65.4144 36.009 64.7291C35.6989 64.0437 35.242 63.497 34.6382 63.089C34.0507 62.6811 33.3246 62.4771 32.4597 62.4771C31.6111 62.4771 30.8849 62.6811 30.2811 63.089C29.6937 63.497 29.2367 64.0437 28.9104 64.7291C28.6003 65.4144 28.4453 66.1733 28.4453 67.0055C28.4453 67.8378 28.6003 68.5966 28.9104 69.282C29.2367 69.9673 29.6937 70.514 30.2811 70.922C30.8849 71.3299 31.6111 71.5339 32.4597 71.5339Z" fill="white"/>
<path d="M11.8848 75.2054V58.8787H23.267V62.6727H16.2174V65.8304H21.6759V69.4042H16.2174V75.2054H11.8848Z" fill="white"/>
<path d="M47.3075 81.4438L31.3904 111.306V125.329H19.8772V111.619L3.64551 81.4438H15.1587L25.6023 100.287L35.7943 81.4438H47.3075Z" fill="white"/>
<path d="M107.63 107.281C107.63 110.04 108.45 112.256 110.089 113.928C111.728 115.601 113.809 116.437 116.331 116.437C118.811 116.437 120.807 115.621 122.32 113.991C123.875 112.319 124.653 110.082 124.653 107.281V81.4438H136.191V107.281C136.191 111.085 135.371 114.43 133.732 117.315C132.135 120.158 129.823 122.353 126.797 123.899C123.812 125.446 120.303 126.22 116.268 126.22C112.233 126.22 108.681 125.446 105.613 123.899C102.587 122.353 100.233 120.158 98.5516 117.315C96.9124 114.43 96.0928 111.085 96.0928 107.281V81.4438H107.63V107.281Z" fill="white"/>
<g clip-path="url(#clip0_6003_3377)">
<path d="M81.308 83.7627L80.3708 84.5343L74.7052 89.2556C74.1133 88.9738 73.5037 88.7377 72.8871 88.5369C72.7251 88.484 72.5489 88.4277 72.3762 88.3748C72.1754 88.3114 71.9675 88.255 71.7561 88.2022C69.8747 87.7195 67.8804 87.582 65.8369 87.8639C64.7904 88.0084 63.7827 88.2726 62.8279 88.6109C62.7927 88.6214 62.7539 88.6391 62.7187 88.6461C62.2923 88.8011 61.8731 88.9738 61.4644 89.164C61.4115 89.1922 61.3551 89.2098 61.3023 89.238C60.876 89.4459 60.4567 89.6644 60.048 89.9004C60.0374 89.9004 60.0198 89.918 60.0127 89.918C59.6322 90.1471 59.2658 90.4007 58.9029 90.6544C58.695 90.8095 58.4836 90.9715 58.2827 91.1371C58.163 91.2358 58.0361 91.3274 57.9198 91.4366C57.6662 91.6551 57.4089 91.8911 57.1658 92.1272C57.1376 92.1554 57.113 92.18 57.0848 92.2082C53.72 95.5449 51.9019 100.358 52.6101 105.414C52.7017 106.069 52.8462 106.696 53.0118 107.316L46.483 112.757C42.7517 104.72 43.6784 94.9494 49.6998 87.7758C57.5675 78.4001 71.3016 76.8146 81.3045 83.7662L81.308 83.7627Z" fill="#A1CE5E"/>
<path d="M85.2611 82.5259L56.4399 123.591C55.2032 122.883 54.0123 122.062 52.8848 121.117C51.7574 120.173 50.7391 119.134 49.8301 118.042L85.2611 82.5259Z" fill="#258CC0"/>
<path d="M93.8914 82.2742L91.9833 76.7491C93.784 74.6019 94.8549 72.7371 94.4474 72.373C94.0398 72.0088 92.2866 73.2645 90.3122 75.2737L84.6133 73.9677L83.7824 74.4041L88.4641 77.3205C87.5764 78.391 86.8815 79.3798 86.4581 80.149L83.9941 79.8005L83.6182 80.2149L86.0885 81.5993L87.7281 83.8941L88.104 83.4797L87.4911 81.0813C88.2083 80.5885 89.1307 79.7848 90.11 78.7959L93.5344 83.1407L93.885 82.2742H93.8945H93.8914Z" fill="#F9FCFF"/>
<path d="M66.3438 118.725L62.7852 126.188C71.3787 128.471 80.2505 125.638 86.2614 118.461C94.1291 109.085 93.3011 95.2876 84.7252 86.6377L80.4866 94.0227C81.9876 96.0416 83.0164 98.4516 83.3969 101.115C84.5878 109.621 78.6685 117.478 70.1737 118.669C68.8735 118.852 67.5981 118.852 66.3543 118.715" fill="white"/>
</g>
<defs>
<clipPath id="clip0_6003_3377">
<rect width="51.4588" height="56.5824" fill="white" transform="translate(44.2666 70.3054)"/>
</clipPath>
</defs>
</svg>
