<svg preserveAspectRatio="none" width="100%" height="100%" overflow="visible" style="display: block;" viewBox="0 0 43.0664 46.6294" fill="none" xmlns="http://www.w3.org/2000/svg">
<g id="O">
<path d="M30.995 10.6977L30.221 11.3528L25.4851 15.2966C24.9997 15.0608 24.488 14.8643 23.9633 14.6939C23.819 14.6415 23.6878 14.6022 23.5435 14.5629C23.3729 14.5105 23.2024 14.4581 23.0318 14.4188C21.4576 14.0126 19.7915 13.8947 18.0729 14.1436C17.1939 14.2615 16.3543 14.4843 15.5541 14.7725C15.5278 14.7725 15.4885 14.7988 15.4622 14.8119C15.108 14.9429 14.7538 15.087 14.4127 15.2442C14.3734 15.2704 14.3209 15.2835 14.2815 15.3097C13.9273 15.4801 13.5731 15.6635 13.232 15.8732C13.232 15.8732 13.2058 15.8732 13.1927 15.8863C12.8778 16.0828 12.5629 16.2793 12.2743 16.5021C12.0907 16.6331 11.9332 16.7641 11.7627 16.9082C11.6577 16.9869 11.5528 17.0655 11.461 17.1572C11.2511 17.3406 11.0412 17.5372 10.8313 17.7337C10.805 17.7599 10.7788 17.7861 10.7525 17.7992C7.93197 20.59 6.41018 24.6125 7.00053 28.8315C7.07924 29.3687 7.19731 29.9059 7.34162 30.4169L1.88416 34.9635C-1.2775 28.2026 -0.50348 20.0397 4.53418 14.0388C11.1199 6.20352 22.612 4.88017 30.9819 10.6846" fill="#A1CE5F"/>
<path d="M34.301 9.64948L32.1101 12.7679L30.9688 14.3795L28.9747 17.2358L10.1884 43.978C9.15204 43.3884 8.155 42.707 7.21044 41.9078C6.26588 41.1085 5.41315 40.2569 4.65226 39.3397" fill="#238CC0"/>
<path d="M42.474 9.34812L40.6899 4.15954C42.3691 2.14176 43.3661 0.399129 42.9857 0.0584649C42.6052 -0.2822 40.9654 0.897024 39.1287 2.78378L33.8025 1.56525L33.0284 1.97143L37.397 4.70985C36.5705 5.71874 35.9146 6.63591 35.521 7.35655L33.2252 7.02898L32.871 7.42206L35.1799 8.7192L36.7148 10.868L37.0691 10.4749L36.5049 8.23441C37.174 7.76272 38.0399 7.01588 38.9451 6.08561L42.1461 10.1605L42.474 9.34812Z" fill="var(--fill-0, white)"/>
<path d="M18.4664 39.9031L14.9899 45.9564C22.1791 47.8694 30.0898 45.6813 35.1275 39.6803C41.7131 31.8451 41.0178 20.3149 33.8418 13.0823L30.2997 19.2536C31.5591 20.9438 32.425 22.9616 32.7267 25.189C33.7237 32.2905 28.7648 38.868 21.6543 39.8638C20.5655 40.021 19.5028 40.021 18.4533 39.9031" fill="var(--fill-0, white)"/>
</g>
</svg>
